<?xml version="1.0" standalone="no"?>
<!DOCTYPE svg PUBLIC "-//W3C//DTD SVG 20010904//EN"
 "http://www.w3.org/TR/2001/REC-SVG-20010904/DTD/svg10.dtd">
<svg version="1.0" xmlns="http://www.w3.org/2000/svg"
 width="300.000000pt" height="168.000000pt" viewBox="0 0 300.000000 168.000000"
 preserveAspectRatio="xMidYMid meet">

<g transform="translate(0.000000,168.000000) scale(0.100000,-0.100000)"
fill="#000000" stroke="none">
<path d="M1128 1389 c-15 -8 -18 -25 -18 -107 0 -102 7 -122 43 -122 13 0 17
-5 13 -16 -3 -9 -6 -20 -6 -24 0 -5 -24 -37 -54 -70 -30 -34 -61 -78 -68 -98
-9 -27 -13 -108 -13 -294 l0 -258 28 -27 27 -28 227 -3 c177 -2 231 -6 247
-18 16 -11 58 -14 185 -14 l164 0 33 35 c27 29 40 35 74 35 34 0 48 6 76 34
46 46 48 101 5 148 l-29 33 -161 0 -160 0 -30 -29 -31 -30 0 202 c0 239 -5
259 -81 316 -66 49 -91 106 -46 106 13 0 28 5 35 12 16 16 16 200 0 216 -15
15 -434 16 -460 1z m447 -109 l0 -85 -217 -3 -218 -2 0 90 0 90 218 -2 217 -3
0 -85z m-62 -169 c14 -39 27 -55 62 -78 72 -45 76 -61 73 -295 l-3 -203 -46
-3 c-63 -4 -82 -26 -87 -102 l-4 -60 -205 0 -204 0 -25 25 -25 25 3 253 c3
286 2 281 89 374 31 32 49 61 49 76 0 13 3 27 7 30 3 4 72 7 152 7 l146 0 18
-49z m385 -558 c-3 -15 -16 -18 -86 -21 -49 -2 -82 1 -82 7 0 20 36 30 103 31
60 0 68 -2 65 -17z m167 -8 c58 -57 16 -135 -71 -135 l-44 0 0 44 c0 25 -4 48
-10 51 -5 3 -10 19 -10 36 0 29 1 29 55 29 46 0 60 -4 80 -25z m-337 -122 l3
-83 -80 0 c-71 0 -82 2 -95 22 -23 33 -21 103 4 128 18 18 31 20 93 18 l72 -3
3 -82z m182 67 c25 -25 27 -95 4 -128 -13 -19 -24 -22 -85 -22 l-69 0 0 85 0
85 65 0 c52 0 69 -4 85 -20z"/>
<path d="M1180 1275 c0 -49 3 -66 13 -62 8 2 12 24 12 62 0 38 -4 60 -12 63
-10 3 -13 -14 -13 -63z"/>
<path d="M1244 1326 c-9 -25 1 -109 14 -114 9 -3 12 14 12 62 0 61 -13 87 -26
52z"/>
<path d="M1317 1334 c-4 -4 -7 -34 -7 -66 0 -78 24 -76 28 2 3 50 -6 78 -21
64z"/>
<path d="M1374 1326 c-9 -25 1 -109 14 -114 9 -3 12 14 12 62 0 61 -13 87 -26
52z"/>
<path d="M1447 1334 c-4 -4 -7 -34 -7 -66 0 -78 24 -76 28 2 3 50 -6 78 -21
64z"/>
<path d="M1504 1326 c-9 -25 1 -109 14 -114 9 -3 12 14 12 62 0 61 -13 87 -26
52z"/>
<path d="M1277 963 c-4 -3 -7 -28 -7 -55 l0 -48 -53 0 c-29 0 -58 -5 -65 -12
-16 -16 -16 -134 1 -145 11 -7 26 -9 89 -12 25 -1 27 -4 30 -53 l3 -53 78 -3
77 -3 0 56 c0 50 2 55 23 56 12 1 26 1 32 -1 5 -1 24 1 43 5 l33 6 -3 77 -3
77 -62 3 -63 3 0 54 0 55 -73 0 c-41 0 -77 -3 -80 -7z m133 -73 l5 -55 60 -5
60 -5 0 -50 0 -50 -62 -3 -62 -3 -3 -57 -3 -57 -50 0 -50 0 -5 55 -5 55 -62 3
-63 3 0 54 0 54 63 3 62 3 3 45 c4 66 6 68 59 66 l48 -1 5 -55z"/>
</g>
</svg>
